<mxfile host="www.draw.io" modified="2019-12-18T09:25:47.231Z" agent="Mozilla/5.0 (Macintosh; Intel Mac OS X 10_15_2) AppleWebKit/537.36 (KHTML, like Gecko) Chrome/79.0.3945.79 Safari/537.36" etag="bFZkHfi1bJYGxF_uCGCQ" version="12.4.2" type="github" pages="1">
  <diagram id="B_G7BN0pg-eralU9Y7lQ" name="Page-1">
    <mxGraphModel dx="1860" dy="837" grid="1" gridSize="10" guides="1" tooltips="1" connect="1" arrows="1" fold="1" page="1" pageScale="1" pageWidth="1920" pageHeight="1200" math="0" shadow="0">
      <root>
        <mxCell id="0"/>
        <mxCell id="1" parent="0"/>
        <mxCell id="duu10q1DUP-rFCEBtcsj-118" value="" style="edgeStyle=orthogonalEdgeStyle;rounded=0;orthogonalLoop=1;jettySize=auto;html=1;startArrow=none;startFill=0;" parent="1" target="duu10q1DUP-rFCEBtcsj-2" edge="1">
          <mxGeometry relative="1" as="geometry">
            <mxPoint x="350" y="55" as="sourcePoint"/>
          </mxGeometry>
        </mxCell>
        <mxCell id="duu10q1DUP-rFCEBtcsj-130" value="Stanze" style="swimlane;fontStyle=0;childLayout=stackLayout;horizontal=1;startSize=26;fillColor=#e0e0e0;horizontalStack=0;resizeParent=1;resizeParentMax=0;resizeLast=0;collapsible=1;marginBottom=0;swimlaneFillColor=#ffffff;align=center;fontSize=14;" parent="1" vertex="1">
          <mxGeometry x="110" y="460" width="330" height="186" as="geometry">
            <mxRectangle x="70" y="350" width="80" height="26" as="alternateBounds"/>
          </mxGeometry>
        </mxCell>
        <mxCell id="duu10q1DUP-rFCEBtcsj-131" value="uniqueId" style="shape=partialRectangle;top=0;left=0;right=0;bottom=1;align=left;verticalAlign=middle;fillColor=none;spacingLeft=34;spacingRight=4;overflow=hidden;rotatable=0;points=[[0,0.5],[1,0.5]];portConstraint=eastwest;dropTarget=0;fontStyle=5;fontSize=12;" parent="duu10q1DUP-rFCEBtcsj-130" vertex="1">
          <mxGeometry y="26" width="330" height="30" as="geometry"/>
        </mxCell>
        <mxCell id="duu10q1DUP-rFCEBtcsj-132" value="ID" style="shape=partialRectangle;top=0;left=0;bottom=0;fillColor=none;align=left;verticalAlign=middle;spacingLeft=4;spacingRight=4;overflow=hidden;rotatable=0;points=[];portConstraint=eastwest;part=1;fontSize=12;" parent="duu10q1DUP-rFCEBtcsj-131" vertex="1" connectable="0">
          <mxGeometry width="30" height="30" as="geometry"/>
        </mxCell>
        <mxCell id="duu10q1DUP-rFCEBtcsj-133" value="Per max persone - TINYINT; default(0)" style="shape=partialRectangle;top=0;left=0;right=0;bottom=0;align=left;verticalAlign=top;fillColor=none;spacingLeft=34;spacingRight=4;overflow=hidden;rotatable=0;points=[[0,0.5],[1,0.5]];portConstraint=eastwest;dropTarget=0;fontSize=12;" parent="duu10q1DUP-rFCEBtcsj-130" vertex="1">
          <mxGeometry y="56" width="330" height="26" as="geometry"/>
        </mxCell>
        <mxCell id="duu10q1DUP-rFCEBtcsj-134" value="" style="shape=partialRectangle;top=0;left=0;bottom=0;fillColor=none;align=left;verticalAlign=top;spacingLeft=4;spacingRight=4;overflow=hidden;rotatable=0;points=[];portConstraint=eastwest;part=1;fontSize=12;" parent="duu10q1DUP-rFCEBtcsj-133" vertex="1" connectable="0">
          <mxGeometry width="30" height="26" as="geometry"/>
        </mxCell>
        <mxCell id="duu10q1DUP-rFCEBtcsj-135" value="Letti singoli: TINYINT; default(0)" style="shape=partialRectangle;top=0;left=0;right=0;bottom=0;align=left;verticalAlign=top;fillColor=none;spacingLeft=34;spacingRight=4;overflow=hidden;rotatable=0;points=[[0,0.5],[1,0.5]];portConstraint=eastwest;dropTarget=0;fontSize=12;" parent="duu10q1DUP-rFCEBtcsj-130" vertex="1">
          <mxGeometry y="82" width="330" height="26" as="geometry"/>
        </mxCell>
        <mxCell id="duu10q1DUP-rFCEBtcsj-136" value="" style="shape=partialRectangle;top=0;left=0;bottom=0;fillColor=none;align=left;verticalAlign=top;spacingLeft=4;spacingRight=4;overflow=hidden;rotatable=0;points=[];portConstraint=eastwest;part=1;fontSize=12;" parent="duu10q1DUP-rFCEBtcsj-135" vertex="1" connectable="0">
          <mxGeometry width="30" height="26" as="geometry"/>
        </mxCell>
        <mxCell id="duu10q1DUP-rFCEBtcsj-137" value="Letti matirmoniali:TINYINT; default(0)" style="shape=partialRectangle;top=0;left=0;right=0;bottom=0;align=left;verticalAlign=top;fillColor=none;spacingLeft=34;spacingRight=4;overflow=hidden;rotatable=0;points=[[0,0.5],[1,0.5]];portConstraint=eastwest;dropTarget=0;fontSize=12;" parent="duu10q1DUP-rFCEBtcsj-130" vertex="1">
          <mxGeometry y="108" width="330" height="26" as="geometry"/>
        </mxCell>
        <mxCell id="duu10q1DUP-rFCEBtcsj-138" value="" style="shape=partialRectangle;top=0;left=0;bottom=0;fillColor=none;align=left;verticalAlign=top;spacingLeft=4;spacingRight=4;overflow=hidden;rotatable=0;points=[];portConstraint=eastwest;part=1;fontSize=12;" parent="duu10q1DUP-rFCEBtcsj-137" vertex="1" connectable="0">
          <mxGeometry width="30" height="26" as="geometry"/>
        </mxCell>
        <mxCell id="duu10q1DUP-rFCEBtcsj-145" value="tipo letti aggiunti:TINYINT; default(0)" style="shape=partialRectangle;top=0;left=0;right=0;bottom=0;align=left;verticalAlign=top;fillColor=none;spacingLeft=34;spacingRight=4;overflow=hidden;rotatable=0;points=[[0,0.5],[1,0.5]];portConstraint=eastwest;dropTarget=0;fontSize=12;" parent="duu10q1DUP-rFCEBtcsj-130" vertex="1">
          <mxGeometry y="134" width="330" height="26" as="geometry"/>
        </mxCell>
        <mxCell id="duu10q1DUP-rFCEBtcsj-146" value="" style="shape=partialRectangle;top=0;left=0;bottom=0;fillColor=none;align=left;verticalAlign=top;spacingLeft=4;spacingRight=4;overflow=hidden;rotatable=0;points=[];portConstraint=eastwest;part=1;fontSize=12;" parent="duu10q1DUP-rFCEBtcsj-145" vertex="1" connectable="0">
          <mxGeometry width="30" height="26" as="geometry"/>
        </mxCell>
        <mxCell id="duu10q1DUP-rFCEBtcsj-147" value="prezzo a notte: decimale(6,2); not_nullable" style="shape=partialRectangle;top=0;left=0;right=0;bottom=0;align=left;verticalAlign=top;fillColor=none;spacingLeft=34;spacingRight=4;overflow=hidden;rotatable=0;points=[[0,0.5],[1,0.5]];portConstraint=eastwest;dropTarget=0;fontSize=12;" parent="duu10q1DUP-rFCEBtcsj-130" vertex="1">
          <mxGeometry y="160" width="330" height="26" as="geometry"/>
        </mxCell>
        <mxCell id="duu10q1DUP-rFCEBtcsj-148" value="" style="shape=partialRectangle;top=0;left=0;bottom=0;fillColor=none;align=left;verticalAlign=top;spacingLeft=4;spacingRight=4;overflow=hidden;rotatable=0;points=[];portConstraint=eastwest;part=1;fontSize=12;" parent="duu10q1DUP-rFCEBtcsj-147" vertex="1" connectable="0">
          <mxGeometry width="30" height="26" as="geometry"/>
        </mxCell>
        <mxCell id="duu10q1DUP-rFCEBtcsj-177" value="ospite" style="swimlane;fontStyle=0;childLayout=stackLayout;horizontal=1;startSize=26;fillColor=#e0e0e0;horizontalStack=0;resizeParent=1;resizeParentMax=0;resizeLast=0;collapsible=1;marginBottom=0;swimlaneFillColor=#ffffff;align=center;fontSize=14;" parent="1" vertex="1">
          <mxGeometry x="830" y="320" width="280" height="420" as="geometry">
            <mxRectangle x="830" y="320" width="150" height="26" as="alternateBounds"/>
          </mxGeometry>
        </mxCell>
        <mxCell id="duu10q1DUP-rFCEBtcsj-178" value="uniqueId" style="shape=partialRectangle;top=0;left=0;right=0;bottom=1;align=left;verticalAlign=middle;fillColor=none;spacingLeft=34;spacingRight=4;overflow=hidden;rotatable=0;points=[[0,0.5],[1,0.5]];portConstraint=eastwest;dropTarget=0;fontStyle=5;fontSize=12;" parent="duu10q1DUP-rFCEBtcsj-177" vertex="1">
          <mxGeometry y="26" width="280" height="30" as="geometry"/>
        </mxCell>
        <mxCell id="duu10q1DUP-rFCEBtcsj-179" value="ID" style="shape=partialRectangle;top=0;left=0;bottom=0;fillColor=none;align=left;verticalAlign=middle;spacingLeft=4;spacingRight=4;overflow=hidden;rotatable=0;points=[];portConstraint=eastwest;part=1;fontSize=12;" parent="duu10q1DUP-rFCEBtcsj-178" vertex="1" connectable="0">
          <mxGeometry width="30" height="30" as="geometry"/>
        </mxCell>
        <mxCell id="duu10q1DUP-rFCEBtcsj-180" value="Nome" style="shape=partialRectangle;top=0;left=0;right=0;bottom=0;align=left;verticalAlign=top;fillColor=none;spacingLeft=34;spacingRight=4;overflow=hidden;rotatable=0;points=[[0,0.5],[1,0.5]];portConstraint=eastwest;dropTarget=0;fontSize=12;" parent="duu10q1DUP-rFCEBtcsj-177" vertex="1">
          <mxGeometry y="56" width="280" height="26" as="geometry"/>
        </mxCell>
        <mxCell id="duu10q1DUP-rFCEBtcsj-181" value="" style="shape=partialRectangle;top=0;left=0;bottom=0;fillColor=none;align=left;verticalAlign=top;spacingLeft=4;spacingRight=4;overflow=hidden;rotatable=0;points=[];portConstraint=eastwest;part=1;fontSize=12;" parent="duu10q1DUP-rFCEBtcsj-180" vertex="1" connectable="0">
          <mxGeometry width="30" height="26" as="geometry"/>
        </mxCell>
        <mxCell id="duu10q1DUP-rFCEBtcsj-182" value="Cognome" style="shape=partialRectangle;top=0;left=0;right=0;bottom=0;align=left;verticalAlign=top;fillColor=none;spacingLeft=34;spacingRight=4;overflow=hidden;rotatable=0;points=[[0,0.5],[1,0.5]];portConstraint=eastwest;dropTarget=0;fontSize=12;" parent="duu10q1DUP-rFCEBtcsj-177" vertex="1">
          <mxGeometry y="82" width="280" height="26" as="geometry"/>
        </mxCell>
        <mxCell id="duu10q1DUP-rFCEBtcsj-183" value="" style="shape=partialRectangle;top=0;left=0;bottom=0;fillColor=none;align=left;verticalAlign=top;spacingLeft=4;spacingRight=4;overflow=hidden;rotatable=0;points=[];portConstraint=eastwest;part=1;fontSize=12;" parent="duu10q1DUP-rFCEBtcsj-182" vertex="1" connectable="0">
          <mxGeometry width="30" height="26" as="geometry"/>
        </mxCell>
        <mxCell id="duu10q1DUP-rFCEBtcsj-184" value="CF" style="shape=partialRectangle;top=0;left=0;right=0;bottom=0;align=left;verticalAlign=top;fillColor=none;spacingLeft=34;spacingRight=4;overflow=hidden;rotatable=0;points=[[0,0.5],[1,0.5]];portConstraint=eastwest;dropTarget=0;fontSize=12;" parent="duu10q1DUP-rFCEBtcsj-177" vertex="1">
          <mxGeometry y="108" width="280" height="26" as="geometry"/>
        </mxCell>
        <mxCell id="duu10q1DUP-rFCEBtcsj-185" value="" style="shape=partialRectangle;top=0;left=0;bottom=0;fillColor=none;align=left;verticalAlign=top;spacingLeft=4;spacingRight=4;overflow=hidden;rotatable=0;points=[];portConstraint=eastwest;part=1;fontSize=12;" parent="duu10q1DUP-rFCEBtcsj-184" vertex="1" connectable="0">
          <mxGeometry width="30" height="26" as="geometry"/>
        </mxCell>
        <mxCell id="duu10q1DUP-rFCEBtcsj-186" value="telefono" style="shape=partialRectangle;top=0;left=0;right=0;bottom=0;align=left;verticalAlign=top;fillColor=none;spacingLeft=34;spacingRight=4;overflow=hidden;rotatable=0;points=[[0,0.5],[1,0.5]];portConstraint=eastwest;dropTarget=0;fontSize=12;" parent="duu10q1DUP-rFCEBtcsj-177" vertex="1">
          <mxGeometry y="134" width="280" height="26" as="geometry"/>
        </mxCell>
        <mxCell id="duu10q1DUP-rFCEBtcsj-187" value="" style="shape=partialRectangle;top=0;left=0;bottom=0;fillColor=none;align=left;verticalAlign=top;spacingLeft=4;spacingRight=4;overflow=hidden;rotatable=0;points=[];portConstraint=eastwest;part=1;fontSize=12;" parent="duu10q1DUP-rFCEBtcsj-186" vertex="1" connectable="0">
          <mxGeometry width="30" height="26" as="geometry"/>
        </mxCell>
        <mxCell id="duu10q1DUP-rFCEBtcsj-188" value="prezzo a notte" style="shape=partialRectangle;top=0;left=0;right=0;bottom=0;align=left;verticalAlign=top;fillColor=none;spacingLeft=34;spacingRight=4;overflow=hidden;rotatable=0;points=[[0,0.5],[1,0.5]];portConstraint=eastwest;dropTarget=0;fontSize=12;" parent="duu10q1DUP-rFCEBtcsj-177" vertex="1">
          <mxGeometry y="160" width="280" height="26" as="geometry"/>
        </mxCell>
        <mxCell id="duu10q1DUP-rFCEBtcsj-189" value="" style="shape=partialRectangle;top=0;left=0;bottom=0;fillColor=none;align=left;verticalAlign=top;spacingLeft=4;spacingRight=4;overflow=hidden;rotatable=0;points=[];portConstraint=eastwest;part=1;fontSize=12;" parent="duu10q1DUP-rFCEBtcsj-188" vertex="1" connectable="0">
          <mxGeometry width="30" height="26" as="geometry"/>
        </mxCell>
        <mxCell id="duu10q1DUP-rFCEBtcsj-196" value="wifi" style="shape=partialRectangle;top=0;left=0;right=0;bottom=0;align=left;verticalAlign=top;fillColor=none;spacingLeft=34;spacingRight=4;overflow=hidden;rotatable=0;points=[[0,0.5],[1,0.5]];portConstraint=eastwest;dropTarget=0;fontSize=12;" parent="duu10q1DUP-rFCEBtcsj-177" vertex="1">
          <mxGeometry y="186" width="280" height="26" as="geometry"/>
        </mxCell>
        <mxCell id="duu10q1DUP-rFCEBtcsj-197" value="" style="shape=partialRectangle;top=0;left=0;bottom=0;fillColor=none;align=left;verticalAlign=top;spacingLeft=4;spacingRight=4;overflow=hidden;rotatable=0;points=[];portConstraint=eastwest;part=1;fontSize=12;" parent="duu10q1DUP-rFCEBtcsj-196" vertex="1" connectable="0">
          <mxGeometry width="30" height="26" as="geometry"/>
        </mxCell>
        <mxCell id="duu10q1DUP-rFCEBtcsj-198" value="row 3" style="shape=partialRectangle;top=0;left=0;right=0;bottom=0;align=left;verticalAlign=top;fillColor=none;spacingLeft=34;spacingRight=4;overflow=hidden;rotatable=0;points=[[0,0.5],[1,0.5]];portConstraint=eastwest;dropTarget=0;fontSize=12;" parent="duu10q1DUP-rFCEBtcsj-177" vertex="1">
          <mxGeometry y="212" width="280" height="26" as="geometry"/>
        </mxCell>
        <mxCell id="duu10q1DUP-rFCEBtcsj-199" value="" style="shape=partialRectangle;top=0;left=0;bottom=0;fillColor=none;align=left;verticalAlign=top;spacingLeft=4;spacingRight=4;overflow=hidden;rotatable=0;points=[];portConstraint=eastwest;part=1;fontSize=12;" parent="duu10q1DUP-rFCEBtcsj-198" vertex="1" connectable="0">
          <mxGeometry width="30" height="26" as="geometry"/>
        </mxCell>
        <mxCell id="duu10q1DUP-rFCEBtcsj-200" value="disponibilità" style="shape=partialRectangle;top=0;left=0;right=0;bottom=0;align=left;verticalAlign=top;fillColor=none;spacingLeft=34;spacingRight=4;overflow=hidden;rotatable=0;points=[[0,0.5],[1,0.5]];portConstraint=eastwest;dropTarget=0;fontSize=12;" parent="duu10q1DUP-rFCEBtcsj-177" vertex="1">
          <mxGeometry y="238" width="280" height="26" as="geometry"/>
        </mxCell>
        <mxCell id="duu10q1DUP-rFCEBtcsj-201" value="" style="shape=partialRectangle;top=0;left=0;bottom=0;fillColor=none;align=left;verticalAlign=top;spacingLeft=4;spacingRight=4;overflow=hidden;rotatable=0;points=[];portConstraint=eastwest;part=1;fontSize=12;" parent="duu10q1DUP-rFCEBtcsj-200" vertex="1" connectable="0">
          <mxGeometry width="30" height="26" as="geometry"/>
        </mxCell>
        <mxCell id="duu10q1DUP-rFCEBtcsj-202" value="animali ammessi" style="shape=partialRectangle;top=0;left=0;right=0;bottom=0;align=left;verticalAlign=top;fillColor=none;spacingLeft=34;spacingRight=4;overflow=hidden;rotatable=0;points=[[0,0.5],[1,0.5]];portConstraint=eastwest;dropTarget=0;fontSize=12;" parent="duu10q1DUP-rFCEBtcsj-177" vertex="1">
          <mxGeometry y="264" width="280" height="26" as="geometry"/>
        </mxCell>
        <mxCell id="duu10q1DUP-rFCEBtcsj-203" value="" style="shape=partialRectangle;top=0;left=0;bottom=0;fillColor=none;align=left;verticalAlign=top;spacingLeft=4;spacingRight=4;overflow=hidden;rotatable=0;points=[];portConstraint=eastwest;part=1;fontSize=12;" parent="duu10q1DUP-rFCEBtcsj-202" vertex="1" connectable="0">
          <mxGeometry width="30" height="26" as="geometry"/>
        </mxCell>
        <mxCell id="duu10q1DUP-rFCEBtcsj-204" value="lavatirce" style="shape=partialRectangle;top=0;left=0;right=0;bottom=0;align=left;verticalAlign=top;fillColor=none;spacingLeft=34;spacingRight=4;overflow=hidden;rotatable=0;points=[[0,0.5],[1,0.5]];portConstraint=eastwest;dropTarget=0;fontSize=12;" parent="duu10q1DUP-rFCEBtcsj-177" vertex="1">
          <mxGeometry y="290" width="280" height="26" as="geometry"/>
        </mxCell>
        <mxCell id="duu10q1DUP-rFCEBtcsj-205" value="" style="shape=partialRectangle;top=0;left=0;bottom=0;fillColor=none;align=left;verticalAlign=top;spacingLeft=4;spacingRight=4;overflow=hidden;rotatable=0;points=[];portConstraint=eastwest;part=1;fontSize=12;" parent="duu10q1DUP-rFCEBtcsj-204" vertex="1" connectable="0">
          <mxGeometry width="30" height="26" as="geometry"/>
        </mxCell>
        <mxCell id="duu10q1DUP-rFCEBtcsj-206" value="servizi pulizie" style="shape=partialRectangle;top=0;left=0;right=0;bottom=0;align=left;verticalAlign=top;fillColor=none;spacingLeft=34;spacingRight=4;overflow=hidden;rotatable=0;points=[[0,0.5],[1,0.5]];portConstraint=eastwest;dropTarget=0;fontSize=12;" parent="duu10q1DUP-rFCEBtcsj-177" vertex="1">
          <mxGeometry y="316" width="280" height="26" as="geometry"/>
        </mxCell>
        <mxCell id="duu10q1DUP-rFCEBtcsj-207" value="" style="shape=partialRectangle;top=0;left=0;bottom=0;fillColor=none;align=left;verticalAlign=top;spacingLeft=4;spacingRight=4;overflow=hidden;rotatable=0;points=[];portConstraint=eastwest;part=1;fontSize=12;" parent="duu10q1DUP-rFCEBtcsj-206" vertex="1" connectable="0">
          <mxGeometry width="30" height="26" as="geometry"/>
        </mxCell>
        <mxCell id="duu10q1DUP-rFCEBtcsj-208" value="Dal centro" style="shape=partialRectangle;top=0;left=0;right=0;bottom=0;align=left;verticalAlign=top;fillColor=none;spacingLeft=34;spacingRight=4;overflow=hidden;rotatable=0;points=[[0,0.5],[1,0.5]];portConstraint=eastwest;dropTarget=0;fontSize=12;" parent="duu10q1DUP-rFCEBtcsj-177" vertex="1">
          <mxGeometry y="342" width="280" height="26" as="geometry"/>
        </mxCell>
        <mxCell id="duu10q1DUP-rFCEBtcsj-209" value="" style="shape=partialRectangle;top=0;left=0;bottom=0;fillColor=none;align=left;verticalAlign=top;spacingLeft=4;spacingRight=4;overflow=hidden;rotatable=0;points=[];portConstraint=eastwest;part=1;fontSize=12;" parent="duu10q1DUP-rFCEBtcsj-208" vertex="1" connectable="0">
          <mxGeometry width="30" height="26" as="geometry"/>
        </mxCell>
        <mxCell id="duu10q1DUP-rFCEBtcsj-210" value="servizi in zona" style="shape=partialRectangle;top=0;left=0;right=0;bottom=0;align=left;verticalAlign=top;fillColor=none;spacingLeft=34;spacingRight=4;overflow=hidden;rotatable=0;points=[[0,0.5],[1,0.5]];portConstraint=eastwest;dropTarget=0;fontSize=12;" parent="duu10q1DUP-rFCEBtcsj-177" vertex="1">
          <mxGeometry y="368" width="280" height="26" as="geometry"/>
        </mxCell>
        <mxCell id="duu10q1DUP-rFCEBtcsj-211" value="" style="shape=partialRectangle;top=0;left=0;bottom=0;fillColor=none;align=left;verticalAlign=top;spacingLeft=4;spacingRight=4;overflow=hidden;rotatable=0;points=[];portConstraint=eastwest;part=1;fontSize=12;" parent="duu10q1DUP-rFCEBtcsj-210" vertex="1" connectable="0">
          <mxGeometry width="30" height="26" as="geometry"/>
        </mxCell>
        <mxCell id="duu10q1DUP-rFCEBtcsj-244" value="ID_STANZA" style="shape=partialRectangle;top=0;left=0;right=0;bottom=0;align=left;verticalAlign=top;fillColor=none;spacingLeft=34;spacingRight=4;overflow=hidden;rotatable=0;points=[[0,0.5],[1,0.5]];portConstraint=eastwest;dropTarget=0;fontSize=12;" parent="duu10q1DUP-rFCEBtcsj-177" vertex="1">
          <mxGeometry y="394" width="280" height="26" as="geometry"/>
        </mxCell>
        <mxCell id="duu10q1DUP-rFCEBtcsj-245" value="FK" style="shape=partialRectangle;top=0;left=0;bottom=0;fillColor=none;align=left;verticalAlign=top;spacingLeft=4;spacingRight=4;overflow=hidden;rotatable=0;points=[];portConstraint=eastwest;part=1;fontSize=12;" parent="duu10q1DUP-rFCEBtcsj-244" vertex="1" connectable="0">
          <mxGeometry width="30" height="26" as="geometry"/>
        </mxCell>
        <mxCell id="duu10q1DUP-rFCEBtcsj-247" value="Caratteristiche" style="swimlane;fontStyle=0;childLayout=stackLayout;horizontal=1;startSize=26;fillColor=#e0e0e0;horizontalStack=0;resizeParent=1;resizeParentMax=0;resizeLast=0;collapsible=1;marginBottom=0;swimlaneFillColor=#ffffff;align=center;fontSize=14;" parent="1" vertex="1">
          <mxGeometry x="1130" y="170" width="280" height="498" as="geometry">
            <mxRectangle x="1130" y="170" width="150" height="26" as="alternateBounds"/>
          </mxGeometry>
        </mxCell>
        <mxCell id="duu10q1DUP-rFCEBtcsj-248" value="uniqueId" style="shape=partialRectangle;top=0;left=0;right=0;bottom=1;align=left;verticalAlign=middle;fillColor=none;spacingLeft=34;spacingRight=4;overflow=hidden;rotatable=0;points=[[0,0.5],[1,0.5]];portConstraint=eastwest;dropTarget=0;fontStyle=5;fontSize=12;" parent="duu10q1DUP-rFCEBtcsj-247" vertex="1">
          <mxGeometry y="26" width="280" height="30" as="geometry"/>
        </mxCell>
        <mxCell id="duu10q1DUP-rFCEBtcsj-249" value="ID" style="shape=partialRectangle;top=0;left=0;bottom=0;fillColor=none;align=left;verticalAlign=middle;spacingLeft=4;spacingRight=4;overflow=hidden;rotatable=0;points=[];portConstraint=eastwest;part=1;fontSize=12;" parent="duu10q1DUP-rFCEBtcsj-248" vertex="1" connectable="0">
          <mxGeometry width="30" height="30" as="geometry"/>
        </mxCell>
        <mxCell id="duu10q1DUP-rFCEBtcsj-250" value="Per max persone - TINYINT; default(0)" style="shape=partialRectangle;top=0;left=0;right=0;bottom=0;align=left;verticalAlign=top;fillColor=none;spacingLeft=34;spacingRight=4;overflow=hidden;rotatable=0;points=[[0,0.5],[1,0.5]];portConstraint=eastwest;dropTarget=0;fontSize=12;" parent="duu10q1DUP-rFCEBtcsj-247" vertex="1">
          <mxGeometry y="56" width="280" height="26" as="geometry"/>
        </mxCell>
        <mxCell id="duu10q1DUP-rFCEBtcsj-251" value="" style="shape=partialRectangle;top=0;left=0;bottom=0;fillColor=none;align=left;verticalAlign=top;spacingLeft=4;spacingRight=4;overflow=hidden;rotatable=0;points=[];portConstraint=eastwest;part=1;fontSize=12;" parent="duu10q1DUP-rFCEBtcsj-250" vertex="1" connectable="0">
          <mxGeometry width="30" height="26" as="geometry"/>
        </mxCell>
        <mxCell id="duu10q1DUP-rFCEBtcsj-252" value="Letti singoli: TINYINT; default(0)" style="shape=partialRectangle;top=0;left=0;right=0;bottom=0;align=left;verticalAlign=top;fillColor=none;spacingLeft=34;spacingRight=4;overflow=hidden;rotatable=0;points=[[0,0.5],[1,0.5]];portConstraint=eastwest;dropTarget=0;fontSize=12;" parent="duu10q1DUP-rFCEBtcsj-247" vertex="1">
          <mxGeometry y="82" width="280" height="26" as="geometry"/>
        </mxCell>
        <mxCell id="duu10q1DUP-rFCEBtcsj-253" value="" style="shape=partialRectangle;top=0;left=0;bottom=0;fillColor=none;align=left;verticalAlign=top;spacingLeft=4;spacingRight=4;overflow=hidden;rotatable=0;points=[];portConstraint=eastwest;part=1;fontSize=12;" parent="duu10q1DUP-rFCEBtcsj-252" vertex="1" connectable="0">
          <mxGeometry width="30" height="26" as="geometry"/>
        </mxCell>
        <mxCell id="duu10q1DUP-rFCEBtcsj-254" value="Letti matirmoniali:TINYINT; default(0)" style="shape=partialRectangle;top=0;left=0;right=0;bottom=0;align=left;verticalAlign=top;fillColor=none;spacingLeft=34;spacingRight=4;overflow=hidden;rotatable=0;points=[[0,0.5],[1,0.5]];portConstraint=eastwest;dropTarget=0;fontSize=12;" parent="duu10q1DUP-rFCEBtcsj-247" vertex="1">
          <mxGeometry y="108" width="280" height="26" as="geometry"/>
        </mxCell>
        <mxCell id="duu10q1DUP-rFCEBtcsj-255" value="" style="shape=partialRectangle;top=0;left=0;bottom=0;fillColor=none;align=left;verticalAlign=top;spacingLeft=4;spacingRight=4;overflow=hidden;rotatable=0;points=[];portConstraint=eastwest;part=1;fontSize=12;" parent="duu10q1DUP-rFCEBtcsj-254" vertex="1" connectable="0">
          <mxGeometry width="30" height="26" as="geometry"/>
        </mxCell>
        <mxCell id="duu10q1DUP-rFCEBtcsj-256" value="tipo letti aggiunti:TINYINT; default(0)" style="shape=partialRectangle;top=0;left=0;right=0;bottom=0;align=left;verticalAlign=top;fillColor=none;spacingLeft=34;spacingRight=4;overflow=hidden;rotatable=0;points=[[0,0.5],[1,0.5]];portConstraint=eastwest;dropTarget=0;fontSize=12;" parent="duu10q1DUP-rFCEBtcsj-247" vertex="1">
          <mxGeometry y="134" width="280" height="26" as="geometry"/>
        </mxCell>
        <mxCell id="duu10q1DUP-rFCEBtcsj-257" value="" style="shape=partialRectangle;top=0;left=0;bottom=0;fillColor=none;align=left;verticalAlign=top;spacingLeft=4;spacingRight=4;overflow=hidden;rotatable=0;points=[];portConstraint=eastwest;part=1;fontSize=12;" parent="duu10q1DUP-rFCEBtcsj-256" vertex="1" connectable="0">
          <mxGeometry width="30" height="26" as="geometry"/>
        </mxCell>
        <mxCell id="duu10q1DUP-rFCEBtcsj-258" value="prezzo a notte: decimale(6,2); not_nullable" style="shape=partialRectangle;top=0;left=0;right=0;bottom=0;align=left;verticalAlign=top;fillColor=none;spacingLeft=34;spacingRight=4;overflow=hidden;rotatable=0;points=[[0,0.5],[1,0.5]];portConstraint=eastwest;dropTarget=0;fontSize=12;" parent="duu10q1DUP-rFCEBtcsj-247" vertex="1">
          <mxGeometry y="160" width="280" height="26" as="geometry"/>
        </mxCell>
        <mxCell id="duu10q1DUP-rFCEBtcsj-259" value="" style="shape=partialRectangle;top=0;left=0;bottom=0;fillColor=none;align=left;verticalAlign=top;spacingLeft=4;spacingRight=4;overflow=hidden;rotatable=0;points=[];portConstraint=eastwest;part=1;fontSize=12;" parent="duu10q1DUP-rFCEBtcsj-258" vertex="1" connectable="0">
          <mxGeometry width="30" height="26" as="geometry"/>
        </mxCell>
        <mxCell id="duu10q1DUP-rFCEBtcsj-260" value="disponibilità" style="shape=partialRectangle;top=0;left=0;right=0;bottom=0;align=left;verticalAlign=top;fillColor=none;spacingLeft=34;spacingRight=4;overflow=hidden;rotatable=0;points=[[0,0.5],[1,0.5]];portConstraint=eastwest;dropTarget=0;fontSize=12;" parent="duu10q1DUP-rFCEBtcsj-247" vertex="1">
          <mxGeometry y="186" width="280" height="26" as="geometry"/>
        </mxCell>
        <mxCell id="duu10q1DUP-rFCEBtcsj-261" value="" style="shape=partialRectangle;top=0;left=0;bottom=0;fillColor=none;align=left;verticalAlign=top;spacingLeft=4;spacingRight=4;overflow=hidden;rotatable=0;points=[];portConstraint=eastwest;part=1;fontSize=12;" parent="duu10q1DUP-rFCEBtcsj-260" vertex="1" connectable="0">
          <mxGeometry width="30" height="26" as="geometry"/>
        </mxCell>
        <mxCell id="duu10q1DUP-rFCEBtcsj-262" value="televisione" style="shape=partialRectangle;top=0;left=0;right=0;bottom=0;align=left;verticalAlign=top;fillColor=none;spacingLeft=34;spacingRight=4;overflow=hidden;rotatable=0;points=[[0,0.5],[1,0.5]];portConstraint=eastwest;dropTarget=0;fontSize=12;" parent="duu10q1DUP-rFCEBtcsj-247" vertex="1">
          <mxGeometry y="212" width="280" height="26" as="geometry"/>
        </mxCell>
        <mxCell id="duu10q1DUP-rFCEBtcsj-263" value="" style="shape=partialRectangle;top=0;left=0;bottom=0;fillColor=none;align=left;verticalAlign=top;spacingLeft=4;spacingRight=4;overflow=hidden;rotatable=0;points=[];portConstraint=eastwest;part=1;fontSize=12;" parent="duu10q1DUP-rFCEBtcsj-262" vertex="1" connectable="0">
          <mxGeometry width="30" height="26" as="geometry"/>
        </mxCell>
        <mxCell id="duu10q1DUP-rFCEBtcsj-264" value="satellite" style="shape=partialRectangle;top=0;left=0;right=0;bottom=0;align=left;verticalAlign=top;fillColor=none;spacingLeft=34;spacingRight=4;overflow=hidden;rotatable=0;points=[[0,0.5],[1,0.5]];portConstraint=eastwest;dropTarget=0;fontSize=12;" parent="duu10q1DUP-rFCEBtcsj-247" vertex="1">
          <mxGeometry y="238" width="280" height="26" as="geometry"/>
        </mxCell>
        <mxCell id="duu10q1DUP-rFCEBtcsj-265" value="" style="shape=partialRectangle;top=0;left=0;bottom=0;fillColor=none;align=left;verticalAlign=top;spacingLeft=4;spacingRight=4;overflow=hidden;rotatable=0;points=[];portConstraint=eastwest;part=1;fontSize=12;" parent="duu10q1DUP-rFCEBtcsj-264" vertex="1" connectable="0">
          <mxGeometry width="30" height="26" as="geometry"/>
        </mxCell>
        <mxCell id="duu10q1DUP-rFCEBtcsj-266" value="wifi" style="shape=partialRectangle;top=0;left=0;right=0;bottom=0;align=left;verticalAlign=top;fillColor=none;spacingLeft=34;spacingRight=4;overflow=hidden;rotatable=0;points=[[0,0.5],[1,0.5]];portConstraint=eastwest;dropTarget=0;fontSize=12;" parent="duu10q1DUP-rFCEBtcsj-247" vertex="1">
          <mxGeometry y="264" width="280" height="26" as="geometry"/>
        </mxCell>
        <mxCell id="duu10q1DUP-rFCEBtcsj-267" value="" style="shape=partialRectangle;top=0;left=0;bottom=0;fillColor=none;align=left;verticalAlign=top;spacingLeft=4;spacingRight=4;overflow=hidden;rotatable=0;points=[];portConstraint=eastwest;part=1;fontSize=12;" parent="duu10q1DUP-rFCEBtcsj-266" vertex="1" connectable="0">
          <mxGeometry width="30" height="26" as="geometry"/>
        </mxCell>
        <mxCell id="duu10q1DUP-rFCEBtcsj-270" value="disponibilità" style="shape=partialRectangle;top=0;left=0;right=0;bottom=0;align=left;verticalAlign=top;fillColor=none;spacingLeft=34;spacingRight=4;overflow=hidden;rotatable=0;points=[[0,0.5],[1,0.5]];portConstraint=eastwest;dropTarget=0;fontSize=12;" parent="duu10q1DUP-rFCEBtcsj-247" vertex="1">
          <mxGeometry y="290" width="280" height="26" as="geometry"/>
        </mxCell>
        <mxCell id="duu10q1DUP-rFCEBtcsj-271" value="" style="shape=partialRectangle;top=0;left=0;bottom=0;fillColor=none;align=left;verticalAlign=top;spacingLeft=4;spacingRight=4;overflow=hidden;rotatable=0;points=[];portConstraint=eastwest;part=1;fontSize=12;" parent="duu10q1DUP-rFCEBtcsj-270" vertex="1" connectable="0">
          <mxGeometry width="30" height="26" as="geometry"/>
        </mxCell>
        <mxCell id="duu10q1DUP-rFCEBtcsj-272" value="animali ammessi" style="shape=partialRectangle;top=0;left=0;right=0;bottom=0;align=left;verticalAlign=top;fillColor=none;spacingLeft=34;spacingRight=4;overflow=hidden;rotatable=0;points=[[0,0.5],[1,0.5]];portConstraint=eastwest;dropTarget=0;fontSize=12;" parent="duu10q1DUP-rFCEBtcsj-247" vertex="1">
          <mxGeometry y="316" width="280" height="26" as="geometry"/>
        </mxCell>
        <mxCell id="duu10q1DUP-rFCEBtcsj-273" value="" style="shape=partialRectangle;top=0;left=0;bottom=0;fillColor=none;align=left;verticalAlign=top;spacingLeft=4;spacingRight=4;overflow=hidden;rotatable=0;points=[];portConstraint=eastwest;part=1;fontSize=12;" parent="duu10q1DUP-rFCEBtcsj-272" vertex="1" connectable="0">
          <mxGeometry width="30" height="26" as="geometry"/>
        </mxCell>
        <mxCell id="duu10q1DUP-rFCEBtcsj-274" value="lavatrice" style="shape=partialRectangle;top=0;left=0;right=0;bottom=0;align=left;verticalAlign=top;fillColor=none;spacingLeft=34;spacingRight=4;overflow=hidden;rotatable=0;points=[[0,0.5],[1,0.5]];portConstraint=eastwest;dropTarget=0;fontSize=12;" parent="duu10q1DUP-rFCEBtcsj-247" vertex="1">
          <mxGeometry y="342" width="280" height="26" as="geometry"/>
        </mxCell>
        <mxCell id="duu10q1DUP-rFCEBtcsj-275" value="" style="shape=partialRectangle;top=0;left=0;bottom=0;fillColor=none;align=left;verticalAlign=top;spacingLeft=4;spacingRight=4;overflow=hidden;rotatable=0;points=[];portConstraint=eastwest;part=1;fontSize=12;" parent="duu10q1DUP-rFCEBtcsj-274" vertex="1" connectable="0">
          <mxGeometry width="30" height="26" as="geometry"/>
        </mxCell>
        <mxCell id="duu10q1DUP-rFCEBtcsj-276" value="servizi pulizie" style="shape=partialRectangle;top=0;left=0;right=0;bottom=0;align=left;verticalAlign=top;fillColor=none;spacingLeft=34;spacingRight=4;overflow=hidden;rotatable=0;points=[[0,0.5],[1,0.5]];portConstraint=eastwest;dropTarget=0;fontSize=12;" parent="duu10q1DUP-rFCEBtcsj-247" vertex="1">
          <mxGeometry y="368" width="280" height="26" as="geometry"/>
        </mxCell>
        <mxCell id="duu10q1DUP-rFCEBtcsj-277" value="" style="shape=partialRectangle;top=0;left=0;bottom=0;fillColor=none;align=left;verticalAlign=top;spacingLeft=4;spacingRight=4;overflow=hidden;rotatable=0;points=[];portConstraint=eastwest;part=1;fontSize=12;" parent="duu10q1DUP-rFCEBtcsj-276" vertex="1" connectable="0">
          <mxGeometry width="30" height="26" as="geometry"/>
        </mxCell>
        <mxCell id="duu10q1DUP-rFCEBtcsj-278" value="Dal centro" style="shape=partialRectangle;top=0;left=0;right=0;bottom=0;align=left;verticalAlign=top;fillColor=none;spacingLeft=34;spacingRight=4;overflow=hidden;rotatable=0;points=[[0,0.5],[1,0.5]];portConstraint=eastwest;dropTarget=0;fontSize=12;" parent="duu10q1DUP-rFCEBtcsj-247" vertex="1">
          <mxGeometry y="394" width="280" height="26" as="geometry"/>
        </mxCell>
        <mxCell id="duu10q1DUP-rFCEBtcsj-279" value="" style="shape=partialRectangle;top=0;left=0;bottom=0;fillColor=none;align=left;verticalAlign=top;spacingLeft=4;spacingRight=4;overflow=hidden;rotatable=0;points=[];portConstraint=eastwest;part=1;fontSize=12;" parent="duu10q1DUP-rFCEBtcsj-278" vertex="1" connectable="0">
          <mxGeometry width="30" height="26" as="geometry"/>
        </mxCell>
        <mxCell id="duu10q1DUP-rFCEBtcsj-280" value="servizi in zona" style="shape=partialRectangle;top=0;left=0;right=0;bottom=0;align=left;verticalAlign=top;fillColor=none;spacingLeft=34;spacingRight=4;overflow=hidden;rotatable=0;points=[[0,0.5],[1,0.5]];portConstraint=eastwest;dropTarget=0;fontSize=12;" parent="duu10q1DUP-rFCEBtcsj-247" vertex="1">
          <mxGeometry y="420" width="280" height="26" as="geometry"/>
        </mxCell>
        <mxCell id="duu10q1DUP-rFCEBtcsj-281" value="" style="shape=partialRectangle;top=0;left=0;bottom=0;fillColor=none;align=left;verticalAlign=top;spacingLeft=4;spacingRight=4;overflow=hidden;rotatable=0;points=[];portConstraint=eastwest;part=1;fontSize=12;" parent="duu10q1DUP-rFCEBtcsj-280" vertex="1" connectable="0">
          <mxGeometry width="30" height="26" as="geometry"/>
        </mxCell>
        <mxCell id="duu10q1DUP-rFCEBtcsj-282" value="fumatori" style="shape=partialRectangle;top=0;left=0;right=0;bottom=0;align=left;verticalAlign=top;fillColor=none;spacingLeft=34;spacingRight=4;overflow=hidden;rotatable=0;points=[[0,0.5],[1,0.5]];portConstraint=eastwest;dropTarget=0;fontSize=12;" parent="duu10q1DUP-rFCEBtcsj-247" vertex="1">
          <mxGeometry y="446" width="280" height="26" as="geometry"/>
        </mxCell>
        <mxCell id="duu10q1DUP-rFCEBtcsj-283" value="" style="shape=partialRectangle;top=0;left=0;bottom=0;fillColor=none;align=left;verticalAlign=top;spacingLeft=4;spacingRight=4;overflow=hidden;rotatable=0;points=[];portConstraint=eastwest;part=1;fontSize=12;" parent="duu10q1DUP-rFCEBtcsj-282" vertex="1" connectable="0">
          <mxGeometry width="30" height="26" as="geometry"/>
        </mxCell>
        <mxCell id="P0jkgbOdyX54mxVDMsWR-7" value="STANZA_ID" style="shape=partialRectangle;top=0;left=0;right=0;bottom=0;align=left;verticalAlign=top;fillColor=none;spacingLeft=34;spacingRight=4;overflow=hidden;rotatable=0;points=[[0,0.5],[1,0.5]];portConstraint=eastwest;dropTarget=0;fontSize=12;" vertex="1" parent="duu10q1DUP-rFCEBtcsj-247">
          <mxGeometry y="472" width="280" height="26" as="geometry"/>
        </mxCell>
        <mxCell id="P0jkgbOdyX54mxVDMsWR-8" value="FK" style="shape=partialRectangle;top=0;left=0;bottom=0;fillColor=none;align=left;verticalAlign=top;spacingLeft=4;spacingRight=4;overflow=hidden;rotatable=0;points=[];portConstraint=eastwest;part=1;fontSize=12;" vertex="1" connectable="0" parent="P0jkgbOdyX54mxVDMsWR-7">
          <mxGeometry width="30" height="26" as="geometry"/>
        </mxCell>
        <mxCell id="duu10q1DUP-rFCEBtcsj-290" value="Posso ciclare sulle righe ma devo prevedere le colonne&lt;br style=&quot;font-size: 18px;&quot;&gt;Se non posso prevedere le colonne devo prevedere una nuova tabella" style="text;html=1;align=left;verticalAlign=middle;resizable=0;points=[];;autosize=1;fontSize=18;" parent="1" vertex="1">
          <mxGeometry x="120" y="120" width="580" height="50" as="geometry"/>
        </mxCell>
        <mxCell id="P0jkgbOdyX54mxVDMsWR-13" value="" style="edgeStyle=entityRelationEdgeStyle;fontSize=12;html=1;endArrow=ERzeroToMany;startArrow=ERzeroToOne;entryX=0;entryY=0.5;entryDx=0;entryDy=0;" edge="1" parent="1" source="duu10q1DUP-rFCEBtcsj-131" target="P0jkgbOdyX54mxVDMsWR-7">
          <mxGeometry width="100" height="100" relative="1" as="geometry">
            <mxPoint x="110" y="910" as="sourcePoint"/>
            <mxPoint x="530" y="870" as="targetPoint"/>
          </mxGeometry>
        </mxCell>
        <mxCell id="P0jkgbOdyX54mxVDMsWR-14" value="MaM" style="text;html=1;align=center;verticalAlign=middle;resizable=0;points=[];;labelBackgroundColor=#ffffff;fontSize=12;" vertex="1" connectable="0" parent="P0jkgbOdyX54mxVDMsWR-13">
          <mxGeometry x="0.0832" relative="1" as="geometry">
            <mxPoint x="-103.64" y="-31.369999999999997" as="offset"/>
          </mxGeometry>
        </mxCell>
        <mxCell id="P0jkgbOdyX54mxVDMsWR-15" value="" style="edgeStyle=entityRelationEdgeStyle;fontSize=12;html=1;endArrow=ERoneToMany;" edge="1" parent="1" source="duu10q1DUP-rFCEBtcsj-131" target="P0jkgbOdyX54mxVDMsWR-11">
          <mxGeometry width="100" height="100" relative="1" as="geometry">
            <mxPoint x="110" y="910" as="sourcePoint"/>
            <mxPoint x="210" y="810" as="targetPoint"/>
          </mxGeometry>
        </mxCell>
        <mxCell id="P0jkgbOdyX54mxVDMsWR-18" value="1aM" style="text;html=1;align=center;verticalAlign=middle;resizable=0;points=[];;labelBackgroundColor=#ffffff;fontSize=12;" vertex="1" connectable="0" parent="P0jkgbOdyX54mxVDMsWR-15">
          <mxGeometry x="-0.1067" y="3" relative="1" as="geometry">
            <mxPoint y="5.74" as="offset"/>
          </mxGeometry>
        </mxCell>
        <mxCell id="duu10q1DUP-rFCEBtcsj-215" value="prenotazione" style="swimlane;fontStyle=0;childLayout=stackLayout;horizontal=1;startSize=26;fillColor=#e0e0e0;horizontalStack=0;resizeParent=1;resizeParentMax=0;resizeLast=0;collapsible=1;marginBottom=0;swimlaneFillColor=#ffffff;align=center;fontSize=14;" parent="1" vertex="1">
          <mxGeometry x="530" y="740" width="280" height="160" as="geometry">
            <mxRectangle x="530" y="740" width="150" height="26" as="alternateBounds"/>
          </mxGeometry>
        </mxCell>
        <mxCell id="duu10q1DUP-rFCEBtcsj-216" value="uniqueId" style="shape=partialRectangle;top=0;left=0;right=0;bottom=1;align=left;verticalAlign=middle;fillColor=none;spacingLeft=34;spacingRight=4;overflow=hidden;rotatable=0;points=[[0,0.5],[1,0.5]];portConstraint=eastwest;dropTarget=0;fontStyle=5;fontSize=12;" parent="duu10q1DUP-rFCEBtcsj-215" vertex="1">
          <mxGeometry y="26" width="280" height="30" as="geometry"/>
        </mxCell>
        <mxCell id="duu10q1DUP-rFCEBtcsj-217" value="ID" style="shape=partialRectangle;top=0;left=0;bottom=0;fillColor=none;align=left;verticalAlign=middle;spacingLeft=4;spacingRight=4;overflow=hidden;rotatable=0;points=[];portConstraint=eastwest;part=1;fontSize=12;" parent="duu10q1DUP-rFCEBtcsj-216" vertex="1" connectable="0">
          <mxGeometry width="30" height="30" as="geometry"/>
        </mxCell>
        <mxCell id="duu10q1DUP-rFCEBtcsj-218" value="Data prenotazione" style="shape=partialRectangle;top=0;left=0;right=0;bottom=0;align=left;verticalAlign=top;fillColor=none;spacingLeft=34;spacingRight=4;overflow=hidden;rotatable=0;points=[[0,0.5],[1,0.5]];portConstraint=eastwest;dropTarget=0;fontSize=12;" parent="duu10q1DUP-rFCEBtcsj-215" vertex="1">
          <mxGeometry y="56" width="280" height="26" as="geometry"/>
        </mxCell>
        <mxCell id="duu10q1DUP-rFCEBtcsj-219" value="" style="shape=partialRectangle;top=0;left=0;bottom=0;fillColor=none;align=left;verticalAlign=top;spacingLeft=4;spacingRight=4;overflow=hidden;rotatable=0;points=[];portConstraint=eastwest;part=1;fontSize=12;" parent="duu10q1DUP-rFCEBtcsj-218" vertex="1" connectable="0">
          <mxGeometry width="30" height="26" as="geometry"/>
        </mxCell>
        <mxCell id="duu10q1DUP-rFCEBtcsj-220" value="Start soggiorno" style="shape=partialRectangle;top=0;left=0;right=0;bottom=0;align=left;verticalAlign=top;fillColor=none;spacingLeft=34;spacingRight=4;overflow=hidden;rotatable=0;points=[[0,0.5],[1,0.5]];portConstraint=eastwest;dropTarget=0;fontSize=12;" parent="duu10q1DUP-rFCEBtcsj-215" vertex="1">
          <mxGeometry y="82" width="280" height="26" as="geometry"/>
        </mxCell>
        <mxCell id="duu10q1DUP-rFCEBtcsj-221" value="" style="shape=partialRectangle;top=0;left=0;bottom=0;fillColor=none;align=left;verticalAlign=top;spacingLeft=4;spacingRight=4;overflow=hidden;rotatable=0;points=[];portConstraint=eastwest;part=1;fontSize=12;" parent="duu10q1DUP-rFCEBtcsj-220" vertex="1" connectable="0">
          <mxGeometry width="30" height="26" as="geometry"/>
        </mxCell>
        <mxCell id="duu10q1DUP-rFCEBtcsj-222" value="End Soggiorrno" style="shape=partialRectangle;top=0;left=0;right=0;bottom=0;align=left;verticalAlign=top;fillColor=none;spacingLeft=34;spacingRight=4;overflow=hidden;rotatable=0;points=[[0,0.5],[1,0.5]];portConstraint=eastwest;dropTarget=0;fontSize=12;" parent="duu10q1DUP-rFCEBtcsj-215" vertex="1">
          <mxGeometry y="108" width="280" height="26" as="geometry"/>
        </mxCell>
        <mxCell id="duu10q1DUP-rFCEBtcsj-223" value="" style="shape=partialRectangle;top=0;left=0;bottom=0;fillColor=none;align=left;verticalAlign=top;spacingLeft=4;spacingRight=4;overflow=hidden;rotatable=0;points=[];portConstraint=eastwest;part=1;fontSize=12;" parent="duu10q1DUP-rFCEBtcsj-222" vertex="1" connectable="0">
          <mxGeometry width="30" height="26" as="geometry"/>
        </mxCell>
        <mxCell id="P0jkgbOdyX54mxVDMsWR-11" value="STANZA_ID" style="shape=partialRectangle;top=0;left=0;right=0;bottom=0;align=left;verticalAlign=top;fillColor=none;spacingLeft=34;spacingRight=4;overflow=hidden;rotatable=0;points=[[0,0.5],[1,0.5]];portConstraint=eastwest;dropTarget=0;fontSize=12;" vertex="1" parent="duu10q1DUP-rFCEBtcsj-215">
          <mxGeometry y="134" width="280" height="26" as="geometry"/>
        </mxCell>
        <mxCell id="P0jkgbOdyX54mxVDMsWR-12" value="FK" style="shape=partialRectangle;top=0;left=0;bottom=0;fillColor=none;align=left;verticalAlign=top;spacingLeft=4;spacingRight=4;overflow=hidden;rotatable=0;points=[];portConstraint=eastwest;part=1;fontSize=12;" vertex="1" connectable="0" parent="P0jkgbOdyX54mxVDMsWR-11">
          <mxGeometry width="30" height="26" as="geometry"/>
        </mxCell>
        <mxCell id="P0jkgbOdyX54mxVDMsWR-16" value="" style="edgeStyle=entityRelationEdgeStyle;fontSize=12;html=1;endArrow=ERoneToMany;entryX=0;entryY=0.5;entryDx=0;entryDy=0;" edge="1" parent="1" source="duu10q1DUP-rFCEBtcsj-131" target="duu10q1DUP-rFCEBtcsj-244">
          <mxGeometry width="100" height="100" relative="1" as="geometry">
            <mxPoint x="440" y="501" as="sourcePoint"/>
            <mxPoint x="720" y="1127" as="targetPoint"/>
          </mxGeometry>
        </mxCell>
        <mxCell id="P0jkgbOdyX54mxVDMsWR-17" value="1aM" style="text;html=1;align=center;verticalAlign=middle;resizable=0;points=[];;labelBackgroundColor=#ffffff;" vertex="1" connectable="0" parent="P0jkgbOdyX54mxVDMsWR-16">
          <mxGeometry x="-0.1654" y="-1" relative="1" as="geometry">
            <mxPoint as="offset"/>
          </mxGeometry>
        </mxCell>
      </root>
    </mxGraphModel>
  </diagram>
</mxfile>
